REM MD5 314c46c4e56545ff30ac9c2d7490b652
FILE "Densetsu no Ogre Battle (Japan).bin" BINARY
  TRACK 01 MODE2/2352
    INDEX 01 00:00:00
  TRACK 02 AUDIO
    INDEX 00 40:49:58
    INDEX 01 40:51:58
  TRACK 03 AUDIO
    INDEX 00 42:33:34
    INDEX 01 42:35:34
  TRACK 04 AUDIO
    INDEX 00 43:57:62
    INDEX 01 43:59:62
  TRACK 05 AUDIO
    INDEX 00 46:08:55
    INDEX 01 46:10:55
REM LEADOUT 49:40:62
